<svg xmlns="http://www.w3.org/2000/svg" version="1.1" xmlns:xlink="http://www.w3.org/1999/xlink" xmlns:svgjs="http://svgjs.dev/svgjs" width="2000" height="790" preserveAspectRatio="none" viewBox="0 0 2000 790"><g mask="url(&quot;#SvgjsMask1152&quot;)" fill="none"><path d="M22 790L812 0L927.5 0L137.5 790z" fill="url(&quot;#SvgjsLinearGradient1153&quot;)"></path><path d="M469 790L1259 0L1835 0L1045 790z" fill="url(&quot;#SvgjsLinearGradient1153&quot;)"></path><path d="M888 790L1678 0L2272 0L1482 790z" fill="url(&quot;#SvgjsLinearGradient1153&quot;)"></path><path d="M1942 790L1152 0L703.5 0L1493.5 790z" fill="url(&quot;#SvgjsLinearGradient1154&quot;)"></path><path d="M1539 790L749 0L123.5 0L913.5 790z" fill="url(&quot;#SvgjsLinearGradient1154&quot;)"></path><path d="M1039 790L249 0L-201 0L589 790z" fill="url(&quot;#SvgjsLinearGradient1154&quot;)"></path><path d="M1435.2285359209186 790L2000 225.2285359209186L2000 790z" fill="url(&quot;#SvgjsLinearGradient1153&quot;)"></path><path d="M0 790L564.7714640790814 790L 0 225.2285359209186z" fill="url(&quot;#SvgjsLinearGradient1154&quot;)"></path></g><defs><mask id="SvgjsMask1152"><rect width="2000" height="790" fill="#ffffff"></rect></mask><linearGradient x1="0%" y1="100%" x2="100%" y2="0%" id="SvgjsLinearGradient1153"><stop stop-color="rgba(15, 70, 185, 0.2)" offset="0"></stop><stop stop-opacity="0" stop-color="rgba(15, 70, 185, 0.2)" offset="0.66"></stop></linearGradient><linearGradient x1="100%" y1="100%" x2="0%" y2="0%" id="SvgjsLinearGradient1154"><stop stop-color="rgba(15, 70, 185, 0.2)" offset="0"></stop><stop stop-opacity="0" stop-color="rgba(15, 70, 185, 0.2)" offset="0.66"></stop></linearGradient></defs></svg>